<?xml version="1.0" encoding="utf-8"?>
<!-- Generator: Adobe Illustrator 17.0.0, SVG Export Plug-In . SVG Version: 6.00 Build 0)  -->
<!DOCTYPE svg PUBLIC "-//W3C//DTD SVG 1.1//EN" "http://www.w3.org/Graphics/SVG/1.1/DTD/svg11.dtd">
<svg version="1.1" xmlns="http://www.w3.org/2000/svg" xmlns:xlink="http://www.w3.org/1999/xlink" x="0px" y="0px" width="11px"
	 height="11px" viewBox="0 0 11 11" enable-background="new 0 0 11 11" xml:space="preserve">
<g id="Layer_1">
</g>
<g id="HeaderNotExpanded">
	<g id="Icon">
		<g>
			<path fill="#FFFFFF" d="M5.5,0C2.462,0,0,2.462,0,5.5C0,8.538,2.462,11,5.5,11S11,8.538,11,5.5C11,2.462,8.538,0,5.5,0z
				 M9.486,2.809c0.461,0.679,0.752,1.481,0.813,2.348H7.548C7.53,4.517,7.477,3.893,7.375,3.297
				C8.12,3.192,8.828,3.028,9.486,2.809z M9.013,2.216C8.451,2.393,7.859,2.529,7.241,2.62C7.097,1.99,6.909,1.392,6.68,0.839
				C7.588,1.068,8.393,1.555,9.013,2.216z M4.141,5.156c0.018-0.605,0.073-1.201,0.177-1.772C4.705,3.418,5.099,3.438,5.5,3.438
				c0.402,0,0.795-0.02,1.182-0.054c0.104,0.572,0.159,1.167,0.177,1.772H4.141z M6.859,5.844C6.841,6.449,6.786,7.045,6.682,7.616
				C6.295,7.582,5.902,7.563,5.5,7.563c-0.401,0-0.795,0.02-1.182,0.054C4.214,7.045,4.159,6.449,4.141,5.844H6.859z M5.166,0.704
				C5.277,0.697,5.387,0.688,5.5,0.688s0.223,0.009,0.334,0.017c0.293,0.609,0.529,1.287,0.705,2.006
				C6.197,2.741,5.851,2.758,5.5,2.758c-0.35,0-0.697-0.018-1.039-0.048C4.637,1.992,4.874,1.314,5.166,0.704z M4.32,0.839
				C4.091,1.392,3.903,1.99,3.759,2.62C3.141,2.529,2.549,2.393,1.987,2.216C2.608,1.555,3.412,1.068,4.32,0.839z M1.514,2.809
				C2.172,3.028,2.88,3.192,3.625,3.297C3.523,3.893,3.47,4.517,3.452,5.156H0.701C0.762,4.289,1.053,3.487,1.514,2.809z
				 M1.514,8.191C1.053,7.512,0.762,6.711,0.701,5.844h2.752C3.47,6.483,3.523,7.107,3.625,7.703
				C2.88,7.809,2.172,7.972,1.514,8.191z M1.987,8.784C2.549,8.607,3.141,8.472,3.759,8.38c0.144,0.63,0.331,1.228,0.56,1.781
				C3.412,9.931,2.608,9.445,1.987,8.784z M5.834,10.296c-0.111,0.008-0.221,0.017-0.334,0.017s-0.223-0.009-0.334-0.017
				C4.874,9.686,4.637,9.009,4.461,8.289C4.803,8.259,5.15,8.242,5.5,8.242c0.351,0,0.697,0.018,1.039,0.048
				C6.363,9.009,6.126,9.686,5.834,10.296z M6.68,10.161C6.909,9.608,7.097,9.01,7.241,8.38c0.618,0.091,1.211,0.227,1.772,0.404
				C8.393,9.445,7.588,9.931,6.68,10.161z M9.486,8.191C8.828,7.972,8.12,7.809,7.375,7.703c0.102-0.596,0.155-1.22,0.172-1.859
				h2.752C10.238,6.711,9.947,7.512,9.486,8.191z"/>
		</g>
	</g>
</g>
</svg>
