<?xml version="1.0" encoding="utf-8"?>
<!-- Generator: Adobe Illustrator 17.0.0, SVG Export Plug-In . SVG Version: 6.00 Build 0)  -->
<!DOCTYPE svg PUBLIC "-//W3C//DTD SVG 1.1//EN" "http://www.w3.org/Graphics/SVG/1.1/DTD/svg11.dtd">
<svg version="1.1" xmlns="http://www.w3.org/2000/svg" xmlns:xlink="http://www.w3.org/1999/xlink" x="0px" y="0px" width="15.56px"
	 height="14px" viewBox="0 0 15.56 14" enable-background="new 0 0 15.56 14" xml:space="preserve">
<g id="Layer_1">
</g>
<g id="HeaderNotExpanded">
	<g id="ExpandIcon">
		<g>
			<path fill="#4C4C4D" d="M0.78,1.556h14c0.429,0,0.778-0.348,0.778-0.778C15.558,0.349,15.209,0,14.78,0h-14
				c-0.43,0-0.778,0.349-0.778,0.778C0.002,1.208,0.351,1.556,0.78,1.556z M14.78,12.444h-14c-0.43,0-0.778,0.349-0.778,0.778
				C0.002,13.652,0.351,14,0.78,14h14c0.429,0,0.778-0.348,0.778-0.778C15.558,12.793,15.209,12.444,14.78,12.444z M14.78,6.222h-14
				c-0.43,0-0.778,0.349-0.778,0.778c0,0.43,0.348,0.778,0.778,0.778h14c0.429,0,0.778-0.348,0.778-0.778
				C15.558,6.571,15.209,6.222,14.78,6.222z"/>
		</g>
	</g>
</g>
</svg>
