<?xml version="1.0" encoding="utf-8"?>
<!-- Generator: Adobe Illustrator 17.0.0, SVG Export Plug-In . SVG Version: 6.00 Build 0)  -->
<!DOCTYPE svg PUBLIC "-//W3C//DTD SVG 1.1//EN" "http://www.w3.org/Graphics/SVG/1.1/DTD/svg11.dtd">
<svg version="1.1" xmlns="http://www.w3.org/2000/svg" xmlns:xlink="http://www.w3.org/1999/xlink" x="0px" y="0px" width="13px"
	 height="11px" viewBox="0 0 13 11" enable-background="new 0 0 13 11" xml:space="preserve">
<g id="Layer_1">
</g>
<g id="HeaderNotExpanded">
	<g id="Icon_4_">
		<g>
			<g>
				<path fill="#FFFFFF" d="M6.497,11c-0.051,0-0.103-0.014-0.148-0.042c-0.241-0.15-5.896-3.709-6.301-7.234
					c-0.119-1.037,0.224-1.967,1.02-2.766C1.617,0.34,2.397,0,3.266,0C4.387,0,5.55,0.569,6.497,1.572C7.445,0.569,8.608,0,9.728,0
					c0.869,0,1.649,0.34,2.197,0.958c0.801,0.804,1.146,1.74,1.026,2.781c-0.409,3.527-6.066,7.07-6.306,7.219
					C6.6,10.986,6.548,11,6.497,11z M3.266,0.561c-0.709,0-1.342,0.275-1.783,0.775C1.479,1.34,1.475,1.344,1.471,1.348
					C0.788,2.031,0.505,2.787,0.605,3.66c0.34,2.96,4.997,6.141,5.892,6.727c0.896-0.584,5.555-3.754,5.897-6.713
					c0.102-0.877-0.184-1.638-0.871-2.326c-0.004-0.004-0.008-0.008-0.012-0.013c-0.44-0.499-1.073-0.775-1.782-0.775
					c-1.042,0-2.142,0.588-3.018,1.613C6.657,2.236,6.579,2.272,6.497,2.272l0,0c-0.082,0-0.16-0.036-0.213-0.098
					C5.408,1.149,4.308,0.561,3.266,0.561z"/>
			</g>
		</g>
	</g>
</g>
</svg>
