<?xml version="1.0" encoding="utf-8"?>
<!-- Generator: Adobe Illustrator 17.0.0, SVG Export Plug-In . SVG Version: 6.00 Build 0)  -->
<!DOCTYPE svg PUBLIC "-//W3C//DTD SVG 1.1//EN" "http://www.w3.org/Graphics/SVG/1.1/DTD/svg11.dtd">
<svg version="1.1" xmlns="http://www.w3.org/2000/svg" xmlns:xlink="http://www.w3.org/1999/xlink" x="0px" y="0px" width="12px"
	 height="11px" viewBox="0 0 12 11" enable-background="new 0 0 12 11" xml:space="preserve">
<g id="Layer_1">
</g>
<g id="HeaderNotExpanded">
	<g id="Icon_2_">
		<g>
			<path fill="#FFFFFF" d="M11.502,0c-0.055,0-0.107,0.014-0.154,0.036l-6.08,1.43c-0.203,0-0.367,0.164-0.367,0.367v5.134
				c-0.77-0.501-2.008-0.5-3.113,0.087c-1.394,0.742-2.035,2.123-1.431,3.087c0.604,0.963,2.223,1.143,3.617,0.401
				c0.899-0.478,1.519-1.383,1.66-2.11c0-0.095,0-6.32,0-6.32l5.5-1.294v4.681C10.365,5,9.127,5,8.023,5.588
				C6.628,6.33,5.988,7.711,6.591,8.675c0.604,0.963,2.286,1.189,3.686,0.459c1.048-0.547,1.508-1.395,1.592-2.167
				c0-0.13,0-6.6,0-6.6C11.869,0.164,11.705,0,11.502,0z M3.802,9.9c-1.061,0.576-2.273,0.588-2.784-0.046
				C0.508,9.22,0.956,8.243,2.02,7.672c1.064-0.571,1.999-0.549,2.628-0.084C5.337,8.098,4.706,9.409,3.802,9.9z M10.091,8.502
				C9.042,9.089,7.757,9.003,7.252,8.369C6.748,7.734,7.202,6.765,8.265,6.204c1.064-0.561,2.036-0.584,2.617-0.065
				C11.508,6.697,10.972,8.01,10.091,8.502z"/>
		</g>
	</g>
</g>
</svg>
