<?xml version="1.0" encoding="utf-8"?>
<!-- Generator: Adobe Illustrator 17.0.0, SVG Export Plug-In . SVG Version: 6.00 Build 0)  -->
<!DOCTYPE svg PUBLIC "-//W3C//DTD SVG 1.1//EN" "http://www.w3.org/Graphics/SVG/1.1/DTD/svg11.dtd">
<svg version="1.1" xmlns="http://www.w3.org/2000/svg" xmlns:xlink="http://www.w3.org/1999/xlink" x="0px" y="0px" width="17.34px"
	 height="20px" viewBox="0 0 17.34 20" enable-background="new 0 0 17.34 20" xml:space="preserve">
<g id="Layer_1">
</g>
<g id="HeaderNotExpanded">
	<g id="Logo_1_">
		<g>
			<path fill="#4C4C4D" d="M0.666,10.005h7.337c0.368,0,0.667-0.298,0.667-0.667c0-0.368-0.299-0.667-0.667-0.667H0.666
				c-0.368,0-0.667,0.299-0.667,0.667C-0.001,9.706,0.298,10.005,0.666,10.005z M0.666,2.001h12.006
				c0.368,0,0.667-0.298,0.667-0.667c0-0.369-0.299-0.667-0.667-0.667H0.666c-0.368,0-0.667,0.298-0.667,0.667
				C-0.001,1.703,0.298,2.001,0.666,2.001z M0.666,6.003h12.006c0.368,0,0.667-0.298,0.667-0.667c0-0.369-0.299-0.667-0.667-0.667
				H0.666c-0.368,0-0.667,0.298-0.667,0.667C-0.001,5.704,0.298,6.003,0.666,6.003z M16.674,0c-0.368,0-0.667,0.298-0.667,0.667
				v10.919c-1.478-1.109-3.915-1.133-6.086,0.121C7.232,13.26,6.04,16.129,7.16,18.171c1.164,2.121,4.289,2.393,6.978,0.84
				c2.065-1.192,3.268-3.174,3.19-4.943c0.002-0.021,0.012-0.04,0.012-0.061V0.667C17.341,0.298,17.042,0,16.674,0z M13.687,17.923
				c-1.986,1.198-4.45,1.163-5.382-0.263c-0.932-1.427,0.021-3.704,2.007-4.903c1.986-1.198,4.538-1.149,5.47,0.277
				C16.714,14.462,15.673,16.725,13.687,17.923z M4.668,12.673H0.666c-0.368,0-0.667,0.298-0.667,0.667s0.299,0.667,0.667,0.667
				h4.002c0.368,0,0.667-0.298,0.667-0.667S5.036,12.673,4.668,12.673z"/>
		</g>
	</g>
</g>
</svg>
