<?xml version="1.0" encoding="utf-8"?>
<!-- Generator: Adobe Illustrator 17.0.0, SVG Export Plug-In . SVG Version: 6.00 Build 0)  -->
<!DOCTYPE svg PUBLIC "-//W3C//DTD SVG 1.1//EN" "http://www.w3.org/Graphics/SVG/1.1/DTD/svg11.dtd">
<svg version="1.1" xmlns="http://www.w3.org/2000/svg" xmlns:xlink="http://www.w3.org/1999/xlink" x="0px" y="0px" width="12px"
	 height="11px" viewBox="0 0 12 11" enable-background="new 0 0 12 11" xml:space="preserve">
<g id="Layer_1">
</g>
<g id="HeaderNotExpanded">
	<g id="Icon_2_">
		<g>
			<path fill="#FFFFFF" d="M6.846,10.154H0.5c-0.234,0-0.423,0.189-0.423,0.423S0.266,11,0.5,11h6.346
				c0.234,0,0.423-0.189,0.423-0.423S7.08,10.154,6.846,10.154z M0.5,0.846h11c0.234,0,0.423-0.189,0.423-0.423
				C11.923,0.19,11.734,0,11.5,0h-11C0.266,0,0.077,0.19,0.077,0.423C0.077,0.657,0.266,0.846,0.5,0.846z M11.5,6.769h-11
				c-0.234,0-0.423,0.19-0.423,0.423c0,0.234,0.189,0.423,0.423,0.423h11c0.234,0,0.423-0.189,0.423-0.423
				C11.923,6.959,11.734,6.769,11.5,6.769z M11.5,3.385h-11c-0.234,0-0.423,0.19-0.423,0.423c0,0.234,0.189,0.423,0.423,0.423h11
				c0.234,0,0.423-0.189,0.423-0.423C11.923,3.574,11.734,3.385,11.5,3.385z"/>
		</g>
	</g>
</g>
</svg>
