<?xml version="1.0" encoding="utf-8"?>
<!-- Generator: Adobe Illustrator 17.0.0, SVG Export Plug-In . SVG Version: 6.00 Build 0)  -->
<!DOCTYPE svg PUBLIC "-//W3C//DTD SVG 1.1//EN" "http://www.w3.org/Graphics/SVG/1.1/DTD/svg11.dtd">
<svg version="1.1" xmlns="http://www.w3.org/2000/svg" xmlns:xlink="http://www.w3.org/1999/xlink" x="0px" y="0px"
	 width="13.067px" height="14px" viewBox="0 0 13.067 14" enable-background="new 0 0 13.067 14" xml:space="preserve">
<g id="Layer_1">
</g>
<g id="HeaderNotExpanded">
	<g id="BellIcon">
		<g>
			<path fill="#4C4C4D" d="M11.2,8.4V4.667C11.2,2.089,9.111,0,6.533,0C3.956,0,1.867,2.089,1.867,4.667V8.4L0,12.133h4.247
				C4.463,13.198,5.405,14,6.533,14c1.129,0,2.07-0.802,2.286-1.867h4.247L11.2,8.4z M6.533,13.067
				c-0.609,0-1.122-0.391-1.314-0.933h2.629C7.655,12.676,7.142,13.067,6.533,13.067z M1.4,11.2l1.4-2.8V4.667
				c0-2.062,1.672-3.733,3.733-3.733c2.062,0,3.733,1.672,3.733,3.733V8.4l1.4,2.8H1.4z"/>
		</g>
	</g>
</g>
</svg>
