<?xml version="1.0" encoding="utf-8"?>
<!-- Generator: Adobe Illustrator 17.0.0, SVG Export Plug-In . SVG Version: 6.00 Build 0)  -->
<!DOCTYPE svg PUBLIC "-//W3C//DTD SVG 1.1//EN" "http://www.w3.org/Graphics/SVG/1.1/DTD/svg11.dtd">
<svg version="1.1" xmlns="http://www.w3.org/2000/svg" xmlns:xlink="http://www.w3.org/1999/xlink" x="0px" y="0px" width="18px"
	 height="11px" viewBox="0 0 18 11" enable-background="new 0 0 18 11" xml:space="preserve">
<g id="Layer_1">
</g>
<g id="HeaderNotExpanded">
	<g id="Icon_13_">
		<g>
			<path fill="#FFFFFF" d="M1.056,9.778c-0.337,0-0.611,0.274-0.611,0.611C0.444,10.727,0.718,11,1.056,11s0.611-0.273,0.611-0.611
				C1.667,10.052,1.393,9.778,1.056,9.778z M4.722,1.222h12.222c0.337,0,0.611-0.273,0.611-0.611C17.556,0.274,17.282,0,16.944,0
				H4.722C4.385,0,4.111,0.274,4.111,0.611C4.111,0.949,4.385,1.222,4.722,1.222z M1.056,4.889c-0.337,0-0.611,0.274-0.611,0.611
				c0,0.338,0.274,0.611,0.611,0.611S1.667,5.838,1.667,5.5C1.667,5.163,1.393,4.889,1.056,4.889z M16.944,9.778H4.722
				c-0.337,0-0.611,0.274-0.611,0.611C4.111,10.727,4.385,11,4.722,11h12.222c0.337,0,0.611-0.273,0.611-0.611
				C17.556,10.052,17.282,9.778,16.944,9.778z M1.056,0C0.718,0,0.444,0.274,0.444,0.611c0,0.338,0.274,0.611,0.611,0.611
				s0.611-0.273,0.611-0.611C1.667,0.274,1.393,0,1.056,0z M16.944,4.889H4.722c-0.337,0-0.611,0.274-0.611,0.611
				c0,0.338,0.274,0.611,0.611,0.611h12.222c0.337,0,0.611-0.273,0.611-0.611C17.556,5.163,17.282,4.889,16.944,4.889z"/>
		</g>
	</g>
</g>
</svg>
